# xmcd CD database file generated by Grip 3.2.0
# 
# Track frame offsets:
#       150
#       13101
#       28647
#       47974
#       65199
#       77684
#       89994
#       99485
#       108430
#       120291
#       136176
#       150823
#       164400
#       173975
#       188068
#       208186
#       217657
#       238755
#       251328
# 
# Disc length: 3557 seconds
# 
# Revision: 1
# Processed by: cddbd v1.5.1PL2 Copyright (c) Steve Scherf et al.
# Submitted via: Grip 3.2.0
# 
DISCID=fe0de313
DTITLE=Various Artist - 1. velký trampský zpěvník  Z - Z
DYEAR=2005
DGENRE=Country
TTITLE0=Z Fortu Jerry
TTITLE1=Zas na nebi hvězdy blednou
TTITLE2=Zavolej
TTITLE3=Zebra Dan
TTITLE4=Zelené pláně
TTITLE5=Zelený kruh
TTITLE6=Zhoupni se v sedle
TTITLE7=Zlatá horečka
TTITLE8=Zlatokop Tom
TTITLE9=Zlatý údolí
TTITLE10=Zpěv o třech nesmrtelných mrtvých z Fort Adamson
TTITLE11=Zpívej a povídej
TTITLE12=Zpívej s námi
TTITLE13=Ztracenka si zpívá
TTITLE14=Zůstaň u mně, dívko
TTITLE15=Zuzana
TTITLE16=Žalářní mříž
TTITLE17=Žil Adam v ráji
TTITLE18=Život je jen náhoda
EXTD=Vložila Agina
EXTT0=
EXTT1=
EXTT2=
EXTT3=
EXTT4=
EXTT5=
EXTT6=
EXTT7=
EXTT8=
EXTT9=
EXTT10=
EXTT11=
EXTT12=
EXTT13=
EXTT14=
EXTT15=
EXTT16=
EXTT17=
EXTT18=
PLAYORDER=
